<svg width="32" height="33" viewBox="0 0 32 33" fill="none" xmlns="http://www.w3.org/2000/svg">
    <rect class="svg-rect" y="0.402405" width="31.7886" height="32.0717" rx="8" fill="#FFF32A"/>
    <path fill-rule="evenodd" clip-rule="evenodd" d="M12.964 9.05987C12.4154 9.17802 11.2663 10.3515 10.957 10.8438C9.25047 13.5583 11.0239 16.7657 12.8303 18.9368C14.5244 20.9729 17.146 23.4037 20.0286 22.9968C21.1108 22.844 21.7612 22.4279 22.5511 21.7154C22.8967 21.4034 23.3416 21.1171 23.3191 20.5904C23.2989 20.1112 22.9097 19.7373 22.5908 19.4203C18.2366 15.0927 19.5842 22.2654 15.5512 17.9924C14.9682 17.3748 14.3136 16.5937 13.9364 15.8324C13.1998 14.3457 14.0762 14.1064 14.8123 13.4493C15.2242 13.0818 15.4874 12.8025 15.4602 12.2065C15.4389 11.7341 15.1745 11.2363 14.9316 10.8399C14.5497 10.2159 13.8429 8.87071 12.964 9.05987Z" fill="#333333"/>
    <path d="M22.164 7.23396C20.552 6.15259 18.6169 5.52252 16.5359 5.52252C10.9148 5.52252 6.35791 10.12 6.35791 15.7912C6.35791 21.4624 10.9148 26.0598 16.5359 26.0598C22.1571 26.0598 26.7139 21.4624 26.7139 15.7912C26.7139 15.0576 26.6377 14.3419 26.4927 13.6519" stroke="#333333"/>
    <path d="M21.6248 4.06775L22.473 7.49063H19.0803" stroke="#333333"/>
</svg>