<svg width="24" height="20" viewBox="0 0 24 20" fill="none" xmlns="http://www.w3.org/2000/svg">
<path d="M7.86848 17.7772L7.71129 17.7304L7.5569 17.7858C7.22865 17.9035 5.9259 18.3367 4.69424 18.7439C4.09784 18.941 3.52124 19.1311 3.08611 19.2744C3.14216 18.9597 3.21337 18.58 3.2881 18.1899C3.40239 17.5932 3.5263 16.9651 3.61329 16.5242C3.66704 16.2517 3.7067 16.0507 3.7213 15.9726L3.77488 15.686L3.55187 15.4982C1.63999 13.8884 0.5 11.7516 0.5 9.43005C0.5 4.60158 5.5044 0.5 11.9374 0.5C18.3704 0.5 23.3748 4.60158 23.3748 9.43005C23.3748 14.2585 18.3704 18.3601 11.9374 18.3601C10.5028 18.3601 9.13145 18.1535 7.86848 17.7772Z" stroke="#333333"/>
</svg>
