<svg width="32" height="33" viewBox="0 0 32 33" fill="none" xmlns="http://www.w3.org/2000/svg">
    <rect class="svg-rect" y="0.928223" width="31.7886" height="32.0717" rx="8" fill="#FFF32A"/>
    <path fill-rule="evenodd" clip-rule="evenodd" d="M17.7028 22.3938C17.7801 21.852 17.7324 21.2853 18.0336 20.7774C18.5544 20.0203 19.3307 20.8625 19.7554 21.4094C20.6895 22.6122 21.1421 22.9635 22.1504 22.9727C22.9171 22.9797 23.5061 22.9873 24.2524 22.9734C25.1257 22.957 25.963 22.6968 25.4965 21.8278C25.0889 21.0671 23.7946 19.7338 23.0859 19.1071C22.5627 18.6445 22.2347 18.3086 23.001 17.2795C23.6705 16.3588 25.4603 13.8972 25.5519 12.817C25.5781 12.5072 25.2451 12.5024 25.0252 12.4965C24.3731 12.4789 22.4256 12.481 21.7111 12.4971C21.3989 12.5042 21.2804 12.7007 21.1917 12.8442C20.4165 14.1537 19.8778 15.5421 18.7438 17.0455C18.4387 17.4499 18.029 17.4616 17.8198 16.9873C17.3192 15.8528 18.1917 13.0603 17.4994 12.3562C17.0822 11.9318 15.544 11.9937 14.96 12.0045C14.2571 12.0175 13.0143 12.078 12.8741 12.7217C13.043 12.9454 13.8109 12.7189 14.002 13.9395C14.0983 14.5545 14.0931 15.5591 14.039 16.1844C13.9 17.79 13.2978 17.5638 12.6749 16.8261C11.5447 15.4878 10.865 13.6373 10.4949 12.8683C10.3921 12.6408 10.2068 12.5003 9.91574 12.4995C9.51247 12.4984 7.66947 12.4992 7.25765 12.499C6.88282 12.4988 6.60199 12.5074 6.54764 12.773C6.48824 13.1849 7.33413 14.9514 8.10454 16.3423C9.83634 19.4689 11.4011 21.7278 14.3885 22.7339C15.3182 23.047 15.9431 22.9969 16.8959 22.9726C17.2657 22.9632 17.6389 22.8148 17.7028 22.3938Z" fill="#333333"/>
</svg>