<svg width="32" height="33" viewBox="0 0 32 33" fill="none" xmlns="http://www.w3.org/2000/svg">
    <rect class="svg-rect" y="0.52594" width="31.7886" height="32.0717" rx="8" fill="#FFF32A"/>
    <path d="M11.8072 23.9922L11.6095 23.8787L11.3942 23.9535L11.5582 24.4258L11.3942 23.9535L11.3941 23.9536L11.3936 23.9537L11.3917 23.9544L11.3841 23.957L11.3545 23.9673L11.242 24.0064L10.8375 24.1468L9.58628 24.5814L8.31078 25.0244L8.64803 23.2749L8.85991 22.1762L8.92383 21.8448L8.94118 21.7549L8.94568 21.7315L8.94683 21.7256L8.94712 21.7241L8.94719 21.7237L8.94721 21.7236L8.45627 21.6289L8.94722 21.7236L8.98832 21.5105L8.86071 21.3349C7.8168 19.8987 7.01807 17.8022 7.01807 15.688C7.01807 10.3988 11.2709 6.11792 16.5088 6.11792C21.7466 6.11792 25.9995 10.3988 25.9995 15.688C25.9995 20.9771 21.7466 25.258 16.5088 25.258C14.8057 25.258 13.1924 24.7874 11.8072 23.9922Z" stroke="#333333"/>
    <path fill-rule="evenodd" clip-rule="evenodd" d="M13.578 10.2135C13.1581 10.3048 12.2787 11.2109 12.042 11.591C10.7359 13.6871 12.0931 16.1637 13.4757 17.8402C14.7723 19.4123 16.7787 21.2893 18.9848 20.9751C19.8131 20.8571 20.3109 20.5358 20.9155 19.9857C21.18 19.7447 21.5205 19.5237 21.5033 19.117C21.4878 18.7469 21.1899 18.4582 20.9458 18.2134C17.6133 14.8718 18.6448 20.4103 15.5581 17.1109C15.1119 16.634 14.6109 16.0309 14.3222 15.443C13.7584 14.2951 14.4292 14.1103 14.9926 13.6029C15.3078 13.3191 15.5093 13.1035 15.4885 12.6432C15.4721 12.2785 15.2698 11.8941 15.0839 11.588C14.7916 11.1062 14.2507 10.0675 13.578 10.2135Z" fill="#333333"/>
</svg>