<svg width="177" height="24" viewBox="0 0 177 24" fill="none" xmlns="http://www.w3.org/2000/svg">
<path fill-rule="evenodd" clip-rule="evenodd" d="M35.964 5.99218C35.4154 6.11033 34.2663 7.28383 33.957 7.77614C32.2505 10.4906 34.0239 13.698 35.8303 15.8691C37.5244 17.9052 40.146 20.336 43.0286 19.9291C44.1108 19.7763 44.7612 19.3602 45.5511 18.6477C45.8967 18.3357 46.3416 18.0494 46.3191 17.5227C46.2989 17.0435 45.9097 16.6696 45.5908 16.3526C41.2366 12.025 42.5842 19.1977 38.5512 14.9247C37.9682 14.3071 37.3136 13.526 36.9364 12.7647C36.1998 11.278 37.0762 11.0387 37.8123 10.3816C38.2242 10.0141 38.4874 9.73484 38.4602 9.13879C38.4389 8.66646 38.1745 8.1686 37.9316 7.77226C37.5497 7.1482 36.8429 5.80302 35.964 5.99218Z" fill="#333333"/>
<path d="M45.164 4.16628C43.552 3.08491 41.6169 2.45483 39.5359 2.45483C33.9148 2.45483 29.3579 7.05226 29.3579 12.7235C29.3579 18.3947 33.9148 22.9921 39.5359 22.9921C45.1571 22.9921 49.7139 18.3947 49.7139 12.7235C49.7139 11.9899 49.6377 11.2742 49.4927 10.5842" stroke="#333333"/>
<path d="M44.6246 1L45.4727 4.42288H42.0801" stroke="#333333"/>
<path d="M68.1851 19.4136L68.027 19.3662L67.8718 19.4222C67.5889 19.5244 66.463 19.901 65.3969 20.2557C64.9288 20.4114 64.4747 20.5621 64.1134 20.6818C64.1584 20.4313 64.2125 20.1424 64.2688 19.8463C64.3675 19.3278 64.4748 18.7806 64.5501 18.3963C64.5967 18.1589 64.631 17.9836 64.6436 17.9158L64.6966 17.6305L64.4753 17.443C62.8336 16.0519 61.8579 14.2087 61.8579 12.209C61.8579 8.05239 66.1446 4.5 71.6851 4.5C77.2256 4.5 81.5123 8.05239 81.5123 12.209C81.5123 16.3657 77.2256 19.9181 71.6851 19.9181C70.4507 19.9181 69.2712 19.7392 68.1851 19.4136Z" stroke="#333333"/>
<path d="M130.807 20.3743L130.61 20.2608L130.394 20.3356L130.558 20.8079L130.394 20.3356L130.394 20.3356L130.394 20.3358L130.392 20.3365L130.384 20.3391L130.355 20.3494L130.242 20.3885L129.838 20.5289L128.586 20.9635L127.311 21.4065L127.648 19.657L127.86 18.5583L127.924 18.2269L127.941 18.137L127.946 18.1136L127.947 18.1077L127.947 18.1062L127.947 18.1058L127.947 18.1057L127.456 18.011L127.947 18.1057L127.988 17.8925L127.861 17.717C126.817 16.2808 126.018 14.1843 126.018 12.0701C126.018 6.78091 130.271 2.5 135.509 2.5C140.747 2.5 144.999 6.78091 144.999 12.0701C144.999 17.3592 140.747 21.6401 135.509 21.6401C133.806 21.6401 132.192 21.1695 130.807 20.3743Z" stroke="#333333"/>
<path fill-rule="evenodd" clip-rule="evenodd" d="M132.578 6.59573C132.158 6.68696 131.279 7.5931 131.042 7.97324C129.736 10.0693 131.093 12.5459 132.476 14.2224C133.772 15.7945 135.779 17.6715 137.985 17.3573C138.813 17.2393 139.311 16.918 139.915 16.3679C140.18 16.1269 140.52 15.9059 140.503 15.4992C140.488 15.1291 140.19 14.8404 139.946 14.5956C136.613 11.254 137.645 16.7925 134.558 13.4931C134.112 13.0162 133.611 12.4131 133.322 11.8252C132.758 10.6773 133.429 10.4925 133.993 9.9851C134.308 9.70133 134.509 9.48567 134.488 9.02543C134.472 8.66071 134.27 8.27628 134.084 7.97024C133.792 7.48837 133.251 6.44967 132.578 6.59573Z" fill="#333333"/>
<path fill-rule="evenodd" clip-rule="evenodd" d="M168.703 17.3987C168.78 16.8569 168.733 16.2902 169.034 15.7823C169.555 15.0251 170.331 15.8674 170.756 16.4143C171.69 17.6171 172.142 17.9683 173.151 17.9776C173.917 17.9846 174.506 17.9922 175.253 17.9783C176.126 17.9619 176.963 17.7017 176.497 16.8327C176.089 16.0719 174.795 14.7387 174.086 14.112C173.563 13.6494 173.235 13.3135 174.001 12.2844C174.671 11.3637 176.461 8.90206 176.552 7.82186C176.578 7.51208 176.245 7.50726 176.025 7.50137C175.373 7.48375 173.426 7.48584 172.711 7.50201C172.399 7.50908 172.281 7.70555 172.192 7.84906C171.417 9.15862 170.878 10.547 169.744 12.0504C169.439 12.4548 169.029 12.4664 168.82 11.9921C168.319 10.8576 169.192 8.06519 168.5 7.36112C168.082 6.93668 166.544 6.99853 165.96 7.00935C165.257 7.02236 164.015 7.08288 163.874 7.7266C164.043 7.95033 164.811 7.72381 165.002 8.94437C165.099 9.55933 165.093 10.564 165.039 11.1893C164.9 12.7949 164.298 12.5687 163.675 11.831C162.545 10.4927 161.865 8.64219 161.495 7.87322C161.392 7.64568 161.207 7.50517 160.916 7.50442C160.513 7.50329 158.67 7.50404 158.258 7.50388C157.883 7.50372 157.602 7.51229 157.548 7.7779C157.488 8.18975 158.334 9.9563 159.105 11.3472C160.837 14.4738 162.401 16.7327 165.389 17.7388C166.318 18.0519 166.943 18.0018 167.896 17.9775C168.266 17.9681 168.639 17.8196 168.703 17.3987Z" fill="#333333"/>
<path d="M102.082 17.2258L101.924 17.1784L101.769 17.2344C101.573 17.3049 100.79 17.567 100.044 17.815C99.8153 17.8912 99.591 17.9657 99.3905 18.0323C99.4103 17.9258 99.4313 17.814 99.4529 17.7006C99.5213 17.3411 99.5964 16.9582 99.6492 16.6889C99.6818 16.5224 99.7059 16.3994 99.7147 16.3523L99.7677 16.067L99.5463 15.8795C98.4277 14.9317 97.7725 13.6847 97.7725 12.3407C97.7725 9.55274 100.663 7.10986 104.482 7.10986C108.301 7.10986 111.192 9.55274 111.192 12.3407C111.192 15.1287 108.301 17.5716 104.482 17.5716C103.635 17.5716 102.826 17.4488 102.082 17.2258Z" stroke="#333333"/>
<path d="M109.806 4.11403C108.194 3.03266 106.259 2.40259 104.178 2.40259C98.5568 2.40259 94 7.00002 94 12.6712C94 18.3425 98.5568 22.9399 104.178 22.9399C109.799 22.9399 114.356 18.3425 114.356 12.6712C114.356 11.9376 114.28 11.222 114.135 10.5319" stroke="#333333"/>
<path d="M109.166 1L110.014 4.42288H106.622" stroke="#333333"/>
<path fill-rule="evenodd" clip-rule="evenodd" d="M3.27601 4.02193C2.60984 4.1654 1.21451 5.59036 0.83899 6.18817C-1.23328 9.48434 0.920157 13.379 3.11367 16.0154C5.17079 18.4878 8.35414 21.4394 11.8544 20.9453C13.1686 20.7598 13.9583 20.2546 14.9175 19.3894C15.3372 19.0105 15.8774 18.6629 15.8501 18.0233C15.8255 17.4414 15.353 16.9874 14.9657 16.6024C9.6784 11.3475 11.3149 20.0572 6.41759 14.8686C5.70966 14.1186 4.91483 13.1702 4.4568 12.2457C3.56228 10.4405 4.62654 10.1498 5.52038 9.35198C6.02052 8.90573 6.34013 8.56658 6.30713 7.84282C6.28119 7.26926 5.96023 6.66472 5.6652 6.18345C5.20144 5.42567 4.3433 3.79224 3.27601 4.02193Z" fill="#333333"/>
</svg>
