<svg width="32" height="34" viewBox="0 0 32 34" fill="none" xmlns="http://www.w3.org/2000/svg">
    <rect class="svg-rect" y="0.804749" width="31.7886" height="32.988" rx="8" fill="#FFF32A"/>
    <path d="M13.1849 23.5491L13.0268 23.5017L12.8715 23.5577C12.5886 23.6599 11.4628 24.0365 10.3966 24.3912C9.92853 24.5469 9.4745 24.6976 9.1132 24.8173C9.1582 24.5668 9.21222 24.2779 9.26858 23.9817C9.36727 23.4633 9.47455 22.9161 9.54989 22.5318C9.59644 22.2944 9.63079 22.1191 9.64341 22.0513L9.6964 21.766L9.47504 21.5785C7.83332 20.1874 6.85767 18.3442 6.85767 16.3445C6.85767 12.1879 11.1443 8.6355 16.6849 8.6355C22.2254 8.6355 26.512 12.1879 26.512 16.3445C26.512 20.5012 22.2254 24.0536 16.6849 24.0536C15.4505 24.0536 14.2709 23.8747 13.1849 23.5491Z" stroke="#333333"/>
</svg>