<svg width="32" height="33" viewBox="0 0 32 33" fill="none" xmlns="http://www.w3.org/2000/svg">
    <rect class="svg-rect" y="0.123474" width="31.7886" height="32.0717" rx="8" fill="#FFF32A"/>
    <path d="M13.6916 21.1078L13.5335 21.0604L13.3783 21.1164C13.1831 21.1869 12.3997 21.449 11.6541 21.697C11.425 21.7733 11.2006 21.8478 11.0001 21.9143C11.0199 21.8078 11.0409 21.696 11.0625 21.5826C11.1309 21.2232 11.206 20.8402 11.2588 20.5709C11.2914 20.4044 11.3156 20.2814 11.3243 20.2343L11.3773 19.949L11.156 19.7615C10.0373 18.8137 9.38208 17.5667 9.38208 16.2227C9.38208 13.4348 12.2729 10.9919 16.0917 10.9919C19.9104 10.9919 22.8013 13.4348 22.8013 16.2227C22.8013 19.0107 19.9104 21.4536 16.0917 21.4536C15.2445 21.4536 14.4356 21.3308 13.6916 21.1078Z" stroke="#333333"/>
    <path d="M21.416 7.99599C19.8039 6.91462 17.8688 6.28455 15.7879 6.28455C10.1667 6.28455 5.60986 10.882 5.60986 16.5532C5.60986 22.2244 10.1667 26.8218 15.7879 26.8218C21.409 26.8218 25.9659 22.2244 25.9659 16.5532C25.9659 15.8196 25.8896 15.1039 25.7447 14.4139" stroke="#333333"/>
    <path d="M20.7762 4.88208L21.6244 8.30496H18.2317" stroke="#333333"/>
</svg>