<svg width="23" height="24" viewBox="0 0 23 24" fill="none" xmlns="http://www.w3.org/2000/svg">
<path d="M6.02319 21.3798L5.82644 21.2676L5.61231 21.3415L5.77543 21.8141L5.61226 21.3415L5.61213 21.3416L5.61158 21.3418L5.60939 21.3425L5.60073 21.3455L5.56693 21.3572L5.43825 21.4016L4.97591 21.5611L3.54544 22.0548C2.98766 22.2474 2.41572 22.4448 1.96972 22.5987C2.09885 21.9329 2.24735 21.1675 2.37799 20.4942L2.62022 19.246L2.69329 18.8695L2.71312 18.7673L2.71827 18.7408L2.71959 18.734L2.71992 18.7323L2.72 18.7319L2.72002 18.7318L2.22919 18.6365L2.72003 18.7317L2.76162 18.5175L2.63276 18.3413C1.43166 16.6991 0.513397 14.3038 0.513397 11.8869C0.513397 5.84366 5.40396 0.946106 11.435 0.946106C17.466 0.946106 22.3566 5.84366 22.3566 11.8869C22.3566 17.9301 17.466 22.8277 11.435 22.8277C9.47405 22.8277 7.61714 22.2892 6.02319 21.3798Z" stroke="#333333"/>
<path fill-rule="evenodd" clip-rule="evenodd" d="M8.08416 5.66757C7.60415 5.77123 6.59874 6.8007 6.32816 7.23259C4.83497 9.61393 6.38664 12.4276 7.96719 14.3323C9.44946 16.1185 11.7432 18.2509 14.2654 17.894C15.2123 17.7599 15.7814 17.395 16.4725 16.7699C16.7749 16.4961 17.1641 16.245 17.1445 15.783C17.1268 15.3625 16.7863 15.0345 16.5072 14.7564C12.6974 10.96 13.8766 17.2524 10.3478 13.5038C9.83774 12.962 9.26503 12.2768 8.93499 11.6089C8.29044 10.3047 9.05729 10.0947 9.70136 9.51831C10.0617 9.19591 10.292 8.95089 10.2682 8.428C10.2496 8.01364 10.0183 7.57688 9.80571 7.22918C9.47154 6.68172 8.8532 5.50163 8.08416 5.66757Z" fill="#333333"/>
</svg>
