<svg width="32" height="33" viewBox="0 0 32 33" fill="none" xmlns="http://www.w3.org/2000/svg">
    <rect class="svg-rect" width="31.7886" height="32.0717" rx="8" fill="#FFF32A"/>
    <path fill-rule="evenodd" clip-rule="evenodd" d="M12.276 7.02193C11.6098 7.1654 10.2145 8.59036 9.83899 9.18817C7.76672 12.4843 9.92016 16.379 12.1137 19.0154C14.1708 21.4878 17.3541 24.4394 20.8544 23.9453C22.1686 23.7598 22.9583 23.2546 23.9175 22.3894C24.3372 22.0105 24.8774 21.6629 24.8501 21.0233C24.8255 20.4414 24.353 19.9874 23.9657 19.6024C18.6784 14.3475 20.3149 23.0572 15.4176 17.8686C14.7097 17.1186 13.9148 16.1702 13.4568 15.2457C12.5623 13.4405 13.6265 13.1498 14.5204 12.352C15.0205 11.9057 15.3401 11.5666 15.3071 10.8428C15.2812 10.2693 14.9602 9.66472 14.6652 9.18345C14.2014 8.42567 13.3433 6.79224 12.276 7.02193Z" fill="#333333"/>
</svg>